<mxfile host="65bd71144e">
    <diagram id="XGD6OIssDaElEFpj_Dy7" name="ページ1">
        <mxGraphModel dx="2527" dy="2317" grid="1" gridSize="10" guides="1" tooltips="1" connect="1" arrows="0" fold="1" page="1" pageScale="1" pageWidth="1200" pageHeight="1600" math="0" shadow="0">
            <root>
                <mxCell id="0"/>
                <mxCell id="1" parent="0"/>
                <mxCell id="2" value="" style="shape=image;verticalLabelPosition=bottom;labelBackgroundColor=default;verticalAlign=top;aspect=fixed;imageAspect=0;image=data:image/svg+xml,PHN2ZyB4bWxucz0iaHR0cDovL3d3dy53My5vcmcvMjAwMC9zdmciIHByZXNlcnZlQXNwZWN0UmF0aW89InhNaWRZTWlkIG1lZXQiIHZpZXdCb3g9IjExMC4xNTM5NTM1NTIyNDYxIDI3NC4zNzQ1MTE3MTg3NSA4MTUuODQ2MDY5MzM1OTM3NSA0NzIuNTIyNzA1MDc4MTI1IiBoZWlnaHQ9IjQ3Mi41MjI3MDUwNzgxMjUiIHdpZHRoPSI4MTUuODQ2MDY5MzM1OTM3NSIgdmVyc2lvbj0iMS4wIj4KCjxnIHN0cm9rZT0ibm9uZSIgZmlsbD0iIzAwMDAwMCIgdHJhbnNmb3JtPSJ0cmFuc2xhdGUoMC4wMDAwMDAsMTAyNC4wMDAwMDApIHNjYWxlKDAuMTAwMDAwLC0wLjEwMDAwMCkiPgo8cGF0aCBkPSJNMjkxOCA3NDkxIGMtNjMgLTQgLTkxIC0xMSAtMTA2IC0yNCAtMTkgLTE4IC00MSAtNzkgLTk4IC0yNzkgbC0yNyYjMTA7LTk2IC00NiAtMTIgYy01MyAtMTMgLTI2MCAtOTUgLTMwOSAtMTIyIGwtMzIgLTE4IC00OCAzOCBjLTI3IDIwIC02NiA1MCAtODgmIzEwOzY2IC0yMSAxNyAtNTUgNDUgLTc1IDY0IC0yNSAyMiAtNTAgMzUgLTc3IDM5IGwtNDAgNSAtMjI4IC0yMjIgYy0xMjYgLTEyMiYjMTA7LTIzNCAtMjMyIC0yNDEgLTI0NCAtMjMgLTQwIC0xNiAtODAgMjMgLTExNyAyMCAtMTggNTEgLTYxIDcxIC05NCAxOSAtMzMgNDYmIzEwOy03NSA2MSAtOTQgMjIgLTMwIDI0IC0zNiAxMiAtNTUgLTM5IC02MSAtMTUwIC0yODkgLTE2NiAtMzQwIC0yMiAtNjggLTIzIC02OSYjMTA7LTE1OSAtOTUgLTEzNCAtMjYgLTIwOSAtNTQgLTIyMyAtODYgLTE4IC00MCAtMjkgLTYxNCAtMTIgLTY1NCAxNiAtNDAgMzEgLTQ4JiMxMDsxNDEgLTcxIDE0MyAtMzEgMjI5IC01OSAyMzYgLTc4IDMgLTkgMzIgLTgyIDYzIC0xNjIgNDIgLTEwNSA2OCAtMTU2IDk0IC0xODMmIzEwOzIwIC0yMSAzNiAtNDUgMzYgLTUyIDAgLTEyIC04NSAtMTQyIC0xNjUgLTI1NCAtNDUgLTYyIC0zNyAtODggNjYgLTIwMSA1MCYjMTA7LTU1IDEzNiAtMTM5IDE5MiAtMTg3IDU2IC00OCAxMjUgLTExMSAxNTIgLTE0MCA3NCAtNzggMTAxIC03MyAyNDAgNDEgMTk4JiMxMDsxNjIgMjI1IDE5OSAxOTEgMjY0IC0xOCAzNCAtNjMgNTAgLTk0IDMzIC0xMCAtNiAtNTggLTQ4IC0xMDYgLTk1IC00NyAtNDcmIzEwOy05NiAtODggLTEwNyAtOTEgLTE1IC01IC0yOSAwIC00NyAxNyAtMTUgMTMgLTUyIDQzIC04MiA2NiAtMzAgMjMgLTc3IDY3JiMxMDstMTA1IDk4IC0yNyAzMiAtNzAgNzcgLTk0IDEwMCBsLTQ0IDQzIDMzIDUzIGMxOCAyOSA1NyA4OSA4NiAxMzMgNzYgMTE0IDc2JiMxMDsxMTcgMTEgMjEyIC05MyAxMzQgLTE3MSAzMTMgLTE5MSA0MzUgLTQgMjAgLTE0IDM5IC0yMyA0MiAtOCA0IC04MyAyMCAtMTY2JiMxMDszNiAtODIgMTYgLTE1MSAzMSAtMTUzIDMzIC0yIDIgLTEgMTA4IDMgMjM1IGw2IDIzMSA3MSAxNiBjMzkgOCAxMDcgMjIgMTUxJiMxMDszMCA0NiA5IDg3IDIyIDk2IDMyIDEwIDEwIDQ5IDk4IDg4IDE5NiA3MCAxNzYgOTkgMjM2IDE1MyAzMTEgNDYgNjQgNDEgNzUmIzEwOy05NiAyNTAgbC02OSA4NyAxNjQgMTYwIGM4OSA4NyAxNjYgMTU5IDE3MCAxNTkgNCAwIDUwIC0zMyAxMDEgLTczIDEyOCAtOTkmIzEwOzE1NCAtMTE3IDE3MiAtMTE3IDkgMCA2NyAyNyAxMjkgNTkgOTkgNTMgMTk5IDg5IDM2MiAxMzQgNTkgMTYgNTkgMTYgMTAwIDIxMiYjMTA7MTUgNzIgMzEgMTM4IDM2IDE0OCA5IDE1IDI5IDE3IDIwOCAxNyBsMTk4IDAgMzEgLTEwNyBjMTcgLTYwIDM1IC0xMzIgNDEmIzEwOy0xNjEgMjAgLTk5IDI5IC0xMDggMTMzIC0xMzIgMTYzIC0zNyAzNDEgLTEwNSA0MTcgLTE1OSA1OSAtNDIgODIgLTMyIDE5NiA4NSYjMTA7bDEwMyAxMDYgNTkgLTQ0IGM3MCAtNTEgMjgzIC0yNjIgMjgzIC0yNzkgMCAtNyAtMzEgLTY0IC02OSAtMTI4IC0xMDYgLTE3NyYjMTA7LTEwMiAtMTU3IC00NCAtMjUzIDYzIC0xMDQgMTA5IC0yMDIgMTIzIC0yNjMgMTQgLTY1IDY5IC0yMDMgODMgLTIxMiA3IC01IDc3JiMxMDstMTcgMTU3IC0yOCBsMTQ1IC0yMSA2IC03NCBjOSAtMTA0IDEwIC0zMDQgMyAtMzY3IC02IC01MCAtOCAtNTIgLTQzIC01OCAtMjAmIzEwOy0zIC04NSAtMjEgLTE0NSAtMzkgLTEyNiAtMzkgLTExMyAtMjMgLTE4NCAtMjE2IC0yOCAtNzQgLTcxIC0xODEgLTk2IC0yMzYmIzEwOy0yNSAtNTYgLTQ2IC0xMDggLTQ2IC0xMTYgMCAtOSA5IC0yNyAyMSAtNDIgMjcgLTM1IDg2IC0zNiAxMTYgLTQgMzYgMzkgOTkmIzEwOzE3OCAxNDMgMzEzIGw0MiAxMzAgMTAxIDI4IGM1NiAxNSAxMjYgMzIgMTU1IDM4IDI5IDYgNjQgMjEgNzcgMzIgbDI0IDIyIDUmIzEwOzMyMCBjNyAzNjYgNCAzODQgLTU0IDM5NyAtMTkgNCAtOTYgMTkgLTE3MCAzMSBsLTEzNSAyNCAtMzYgMTA3IGMtMzggMTEyIC04NCYjMTA7MjA5IC0xMjUgMjYzIC0xMyAxNyAtMjQgMzkgLTI0IDQ4IDAgOSAzMyA2OSA3NCAxMzMgMTIwIDE5MCAxMTkgMTg0IDQwIDI3NiYjMTA7LTU5IDcwIC0yOTIgMjkwIC0zODQgMzYzIC04NSA2NyAtMTM5IDU4IC0yMTkgLTM3IC0yNCAtMjggLTY1IC02OSAtOTIgLTkwJiMxMDtsLTQ5IC0zOSAtNzggMzkgYy05NiA0OCAtMjMxIDEwMCAtMjk3IDExNCAtNTggMTMgLTUyIDEgLTEwMSAyMTQgLTIxIDkxIC0zNSYjMTA7MTMxIC01NSAxNTUgbC0yNiAzMiAtMjA5IDEgYy0xMTUgMSAtMjQ4IC0xIC0yOTYgLTV6Ii8+CjxwYXRoIGQ9Ik0yOTAxIDY3NTQgYy0xNjYgLTI4IC0zODYgLTEyMiAtNTQxIC0yMzIgLTkwIC02NCAtMjU0IC0yMzAgLTMyOCYjMTA7LTMzNCAtODUgLTExOCAtMTU2IC0yNzEgLTE5NCAtNDE1IC0yNyAtMTAyIC0zMiAtMTQwIC0zNiAtMjgwIC04IC0zMTkgNzAmIzEwOy01OTcgMjI5IC04MDcgMjA2IC0yNzIgNDk2IC00NTggODE5IC01MjcgMjg5IC02MiA2MDMgLTIxIDg3NSAxMTYgMjYzIDEzMSYjMTA7NDYwIDMyMCA2MTYgNTkwIDkxIDE1NiAxMjcgMjkxIDEzNiA1MDEgMTIgMjk4IC00NCA1NDggLTE3MSA3NjQgLTE4MyAzMTEmIzEwOy01NDggNTYzIC05MDUgNjI1IC0xMDYgMTkgLTM4NSAxOCAtNTAwIC0xeiBtMTYwIC0zMDEgYzYgLTE2MSA5IC0xNzIgNTkgLTE5OCYjMTA7MjUgLTEzIDI5IC0xMiA2MyAxNiBsMzcgMzAgMCAxNTMgMCAxNTMgODMgLTUgYzQ5IC0yIDExMiAtMTQgMTU3IC0yOSAxMDYgLTM0JiMxMDszMjEgLTE0MyA0MTIgLTIwOCA3NyAtNTUgMjA1IC0xOTAgMjU0IC0yNjkgNjUgLTEwNCA5OCAtMTY2IDExOSAtMjIyIDI3IC02OSYjMTA7NjUgLTI1NSA2NSAtMzEzIGwwIC0zOCAtMTIyIC01IGMtNjggLTMgLTEzMSAtOSAtMTQwIC0xMyAtMjUgLTEwIC01MSAtNzEgLTM5JiMxMDstOTIgMjYgLTUwIDQ1IC01NiAxNzYgLTU3IGwxMjYgLTEgLTYgLTcwIGMtOSAtOTkgLTM4IC0xOTQgLTk5IC0zMTYgLTk1IC0xOTAmIzEwOy0xNzYgLTI5MSAtMzIxIC00MDMgLTE0MiAtMTEwIC0yNDYgLTE2NyAtMzgyIC0yMTAgLTg2IC0yNyAtMjYwIC02MiAtMjY4IC01NCYjMTA7LTMgMiAtNyA2NSAtMTEgMTM5IC0zIDc0IC0xMCAxNDcgLTE2IDE2MiAtMTkgNTAgLTc5IDU2IC0xMjUgMTQgLTIyIC0yMCAtMjMmIzEwOy0yOCAtMjMgLTE3MCBsMCAtMTUwIC02OSA2IGMtMTAyIDggLTI2NCA1MyAtMzU2IDk4IC0yMDAgOTggLTQ0MSAzMjggLTU1MyYjMTA7NTI5IC00MyA3OSAtMTAzIDI3MiAtMTA5IDM1NyBsLTYgNzEgODAgLTUgYzQ0IC0zIDEwNiAtMiAxMzcgMSAxMTEgMTQgMTUzIDkyJiMxMDs3NyAxNDMgLTMxIDIxIC00NSAyMyAtMTY0IDIzIGwtMTMwIDAgNiA3MyBjOSAxMzIgOTYgMzU1IDIwMiA1MTcgMTEzIDE3NSAzNzAmIzEwOzM1OCA2MTUgNDQxIDkzIDMxIDIyMCA1OSAyNTAgNTYgMTIgLTIgMTYgLTI5IDIxIC0xNTR6Ii8+CjxwYXRoIGQ9Ik0zNjc5IDYwNTMgYy00NiAtNDMgLTE1OSAtMTQ3IC0yNTEgLTIzMSBsLTE2NyAtMTUzIC01MiAxNSBjLTY0IDE5JiMxMDstMTExIDIwIC0xNjMgMSBsLTM5IC0xNCAtMTk4IDE5MSBjLTExMCAxMDYgLTIxMSAyMDAgLTIyNiAyMTAgLTQwIDI2IC03MCAyMiYjMTA7LTEwNCAtMTEgLTQyIC00MyAtNDAgLTkyIDUgLTEzNSAxMDEgLTk0IDIyNyAtMjA4IDI2NiAtMjQyIDI1IC0yMSA2OSAtNjEgOTgmIzEwOy04OCBsNTIgLTUxIC02IC01NiBjLTkgLTc2IDE2IC0xNTggNjMgLTIxMCA1MCAtNTUgMTUwIC04NiAyMjEgLTY5IDE0MiAzNCYjMTA7MjQyIDE3MiAyMTIgMjk1IC01IDIyIC0xMCA0MyAtMTAgNDYgMCA3IDMyNiAzMTEgNDIzIDM5NCA3MiA2MiA5MiAxMTEgNjAgMTUzJiMxMDstMTUgMjAgLTMwIDI4IC02MCAzMCAtMzggMyAtNDUgLTEgLTEyNCAtNzV6IG0tNDkxIC01NTkgYzQ1IC0zMSAxOCAtMTA4IC00MyYjMTA7LTEyMCAtMzcgLTcgLTcxIDE4IC04MSA1OCAtMTMgNTcgNzEgMTAwIDEyNCA2MnoiLz4KPHBhdGggZD0iTTg1NDAgMzkxMSBjLTUwIC0xNSAtODkgLTQxIC0xMjQgLTgzIC00MyAtNTAgLTU2IC05MSAtNTYgLTE4MCBsMCYjMTA7LTY4IC02MCAwIC02MCAwIDAgLTgwIDAgLTgwIDYwIDAgNjAgMCAwIC0zMTUgMCAtMzE2IDkzIDMgOTIgMyAzIDMxMyAyIDMxMiYjMTA7ODYgMCA4NSAwIC0zIDc4IC0zIDc3IC04OSAzIC04OSAzIDYgNTggYzIgMzIgMTMgNzAgMjIgODUgMjAgMzAgNzIgNDcgMTIxIDM5JiMxMDs0NSAtNyA1NCA1IDU0IDc5IDAgNDcgLTQgNTkgLTE5IDY4IC0yMiAxMSAtMTQzIDEyIC0xODEgMXoiLz4KPHBhdGggZD0iTTYzMTEgMzg4NCBjLTE1NCAtNDEgLTI4OCAtMTc2IC0zNDYgLTM0NyAtMjEgLTY0IC0yNSAtOTQgLTI1IC0xOTYmIzEwOzAgLTEwNSAzIC0xMzAgMjggLTIwNSAzNSAtMTA0IDc3IC0xNzEgMTQ4IC0yMzUgNzQgLTY3IDE2MyAtMTEwIDI1NCAtMTIyIDI0NCYjMTA7LTMwIDQ3OCAxMjAgNTA2IDMyNSBsNyA0NiAtODcgMiBjLTQ3IDEgLTkzIDIgLTEwMiAyIC0xMCAxIC0yMSAtMTMgLTI5IC0zNiYjMTA7LTE5IC01NiAtNDEgLTg1IC04NyAtMTE2IC0zNiAtMjQgLTUzIC0yNyAtMTMyIC0zMCAtODMgLTMgLTk2IC0xIC0xNDYgMjUmIzEwOy0xMDEgNTIgLTE2MiAxODIgLTE2MSAzNDggMCAyMjggMTE1IDM2NSAzMDYgMzY1IDEwOSAwIDIwMSAtNjAgMjI0IC0xNDcgbDEwJiMxMDstMzggOTcgMyA5NiAzIC02IDUyIGMtMjkgMjE5IC0zMDQgMzY5IC01NTUgMzAxeiIvPgo8cGF0aCBkPSJNMzU0NyAzODcwIGMtMzMgLTI3IC00MyAtNzAgLTIzIC0xMDggMjAgLTM5IDYzIC03MiA5MyAtNzIgNDIgMCA5MyYjMTA7MjcgMTA0IDU3IDE0IDM4IC0zIDk2IC0zOCAxMjIgLTM0IDI4IC0xMDEgMjggLTEzNiAxeiIvPgo8cGF0aCBkPSJNMjYwMCAzNzkwIGwwIC05MCAxNTAgMCAxNTAgMCAwIC00NTAgMCAtNDUwIDI0IC02IGMxMyAtMyA1NyAtNCA5NyYjMTA7LTEgbDc0IDQgMyA0NTEgMiA0NTEgMTUzIDMgMTUyIDMgMyA4OCAzIDg3IC00MDYgMCAtNDA1IDAgMCAtOTB6Ii8+CjxwYXRoIGQ9Ik04ODk3IDM3NzMgYy00IC0zIC03IC00OCAtNyAtOTkgbDAgLTkzIC01NyAtMyAtNTggLTMgMCAtNzUgMCAtNzUmIzEwOzU3IC0zIDU2IC0zIDQgLTI0NyBjNCAtMjcyIDkgLTI5NiA2OCAtMzQ2IDU4IC00OCAxNzcgLTY5IDI2MyAtNDUgbDM3IDEwIDAmIzEwOzY0IGMwIDM2IDAgNjggMCA3MiAwIDQgLTIwIDYgLTQ0IDQgLTUyIC0zIC05OCAxOCAtMTIzIDU2IC0xNSAyMyAtMTggNTcgLTIxJiMxMDsyMzAgbC00IDIwMyA4MSAwIDgxIDAgMCA4MCAwIDgwIC04MCAwIC04MCAwIDAgMTAwIDAgMTAwIC04MyAwIGMtNDYgMCAtODcgLTMmIzEwOy05MCAtN3oiLz4KPHBhdGggZD0iTTQxOTAgMzU4MSBjLTQ3IC0xNSAtODcgLTQwIC0xMTkgLTc2IGwtMzEgLTM2IDAgNTYgMCA1NSAtODAgMCAtODAmIzEwOzAgMCAtMzk1IDAgLTM5NiA4OCAzIDg3IDMgNSAyNDUgNSAyNDUgMjggNDggYzE2IDI3IDQzIDU3IDYwIDY4IDU5IDM3IDE0MSAxMiYjMTA7MTgwIC01NiA4IC0xMyAxNCAtMTExIDE3IC0yODUgbDUgLTI2NSA5OCAtMyA5NyAtMyAwIDIzOSAwIDIzOCAyOCA1NSBjNTIgMTAyJiMxMDsxMzkgMTI5IDIxMCA2NCA1NyAtNTEgNjIgLTc5IDYyIC0zNTQgbDAgLTI0MSA5MSAwIDkwIDAgLTMgMjkzIGMtMyAyODIgLTQmIzEwOzI5NCAtMjcgMzQ0IC0zMCA2NyAtMTA1IDEzOCAtMTYyIDE1MyAtNTggMTYgLTE1NSA3IC0yMDUgLTE4IC00NCAtMjIgLTExMSYjMTA7LTg2IC0xMjAgLTExNCAtOCAtMjcgLTE3IC0yMiAtMzcgMjEgLTIwIDQ0IC03MiA4OCAtMTI2IDEwNyAtNDAgMTQgLTEyMiAxNyYjMTA7LTE2MSA1eiIvPgo8cGF0aCBkPSJNNTM5MyAzNTcyIGMtOTYgLTM0IC0xNjkgLTEwNCAtMjIxIC0yMTIgLTM2IC03MyAtMzcgLTc5IC0zNyAtMTg1IDAmIzEwOy05OCAzIC0xMTYgMjcgLTE2OCA1NiAtMTE5IDE3MiAtMjA4IDMwNSAtMjMwIDgwIC0xNCAxODYgMyAyNTUgNDAgNDUgMjUgMTE4JiMxMDs5MyAxMTggMTExIDAgNCAtMzAgMjQgLTY2IDQ1IGwtNjYgMzkgLTIxIC0yMCBjLTUxIC00NyAtOTAgLTYyIC0xNjAgLTYyIC03NiYjMTA7MCAtMTA3IDEyIC0xNTQgNjIgLTM1IDM2IC01MyA3NSAtNTMgMTE0IGwwIDI0IDI4MSAwIDI4MSAwIC00IDkzIGMtMyA3NiAtOSYjMTA7MTAzIC0zMSAxNDkgLTM5IDgwIC0xMTAgMTUxIC0xODIgMTg0IC03OSAzNyAtMTk1IDQzIC0yNzIgMTZ6IG0yMzAgLTE3NSBjNDEmIzEwOy0zMSA1NiAtNTUgNjggLTEwNCBsNyAtMzMgLTE5MCAwIC0xODkgMCA2IDIzIGMxNSA0OSA0OSA5NSA4OCAxMjEgMzcgMjQgNTAmIzEwOzI3IDEwOCAyNCA1NCAtMyA3MyAtOSAxMDIgLTMxeiIvPgo8cGF0aCBkPSJNNzMwMyAzNTY5IGMtNDggLTIzIC0xMTMgLTkxIC0xMTMgLTExNiAwIC05IC0zIC0xMyAtNyAtMTAgLTMgNCAtNSYjMTA7MzYgLTQgNzIgbDIgNjYgLTg4IC0zIC04OCAtMyAtMyAtMzkzIC0yIC0zOTMgOTIgMyA5MyAzIDEgMjI1IDAgMjI1IDMwIDU1JiMxMDtjNDIgNzggOTggMTE1IDE3NSAxMTUgbDYwIDAgLTMgODUgLTMgODUgLTUwIDMgYy0zNSAyIC02MiAtNCAtOTIgLTE5eiIvPgo8cGF0aCBkPSJNNzczNSAzNTgxIGMtMTIwIC0zNCAtMTk4IC0xMDcgLTIyMCAtMjA4IGwtNyAtMzMgOTQgMCBjOTIgMCA5MyAwJiMxMDsxMTAgMjkgMjIgNDAgNzAgNjMgMTMzIDYzIDg4IDEgMTQ1IC01MiAxNDUgLTEzNiBsMCAtMzMgLTEwMiAwIGMtMjI2IC0yIC0zNzUmIzEwOy05NiAtMzg2IC0yNDMgLTUgLTcwIDEwIC0xMjAgNTEgLTE2NiA1MSAtNTkgMTAwIC03OCAxOTIgLTc3IDk1IDEgMTM5IDE4IDIwMSYjMTA7NzUgbDQ0IDQxIDAgLTUyIDAgLTUxIDg1IDAgODUgMCAwIDI5MSBjMCAxOTUgLTQgMzA1IC0xMiAzMzEgLTE3IDU3IC03OCAxMjEmIzEwOy0xNDAgMTQ4IC01OCAyNSAtMjE1IDM3IC0yNzMgMjF6IG0yNjIgLTQ0OCBjLTMgLTEwIC04IC0zNSAtMTIgLTU2IC04IC00NyYjMTA7LTY1IC0xMTMgLTEyMCAtMTM4IC05NCAtNDMgLTE5NSAtNSAtMTk1IDc1IDAgODkgODQgMTMwIDI3OCAxMzUgNDYgMSA1MyAtMSYjMTA7NDkgLTE2eiIvPgo8cGF0aCBkPSJNMzUyOSAzNTc4IGMtNSAtMTQgLTkgLTczMSAtNCAtNzU2IGw2IC0zMyA4NyAzIDg3IDMgMCAzOTAgMCAzOTAmIzEwOy04NyAzIGMtNDkgMSAtODggMSAtODkgMHoiLz4KPC9nPgo8L3N2Zz4=;clipPath=inset(0% 0% 0% 0.33%);imageBackground=none;" vertex="1" parent="1">
                    <mxGeometry y="120" width="2388.63" height="1390" as="geometry"/>
                </mxCell>
            </root>
        </mxGraphModel>
    </diagram>
</mxfile>